<?xml version="1.0" encoding="utf-8"?>
<!-- Svg Vector Icons : http://www.onlinewebfonts.com/icon -->
<!DOCTYPE svg PUBLIC "-//W3C//DTD SVG 1.1//EN" "http://www.w3.org/Graphics/SVG/1.1/DTD/svg11.dtd">
<svg version="1.1" xmlns="http://www.w3.org/2000/svg" xmlns:xlink="http://www.w3.org/1999/xlink" x="0px" y="0px" viewBox="0 0 256 256" enable-background="new 0 0 256 256" xml:space="preserve">
<metadata> Svg Vector Icons : http://www.onlinewebfonts.com/icon </metadata>
<g><g><path fill="#000000" d="M245.9,176.8c-0.9-7.1-4.1-12.3-9.3-15v-47.6c4-1.8,7.8-5.9,8.9-10.2c0.8-2.9,0.3-5.5-1.4-7.4c-0.7-1.1-1.6-1.9-2.4-2l-52.2-29.4l-1-0.6c-3.6-2-8.3-5.3-13.8-9.1c-13.9-9.7-31.3-21.8-43.1-21.8c-11.4,0-26.8,10.7-39.1,19.3c-4.7,3.3-9.1,6.3-12.4,8.2L18.8,95.7c-3.6,2-8.8,7.3-8.8,12.4c0,2.6,1.4,4.9,3.9,6.3L52,135.8c0,2.3,0,4.6-0.1,7.1c-0.4,20.7-0.9,44,13.1,60.1c15.6,17.8,36,19.3,55.7,19.3c2.7,0,5.4,0,8.1,0l5.6,0c59-0.4,67.9-47.6,68.7-89.3l12.9-7.2v39.1c-5.2,4-8.4,9.5-9.2,15.8c-0.6,4.8,1.1,10,4.5,13.9c3.7,4.2,8.9,6.2,14.2,5.5c10.8-1.6,18.7-9.9,20.2-21.3l0.2-0.9L245.9,176.8z M125.7,150.1c-1.7-0.7-3.6-1.5-5.3-2.5L41,102.9L124.3,56c1.4,1.3,3.6,2.2,6.1,3.3c1.8,0.7,3.6,1.5,5.3,2.5l79.3,44.7l-83.3,46.9C130.4,152,128.2,151.1,125.7,150.1z M182.8,144.4c0,11.9-0.2,23.3-2.9,34.7c-5.6,23.6-29.7,22.9-49.4,22.6l-5,0c-21.9-0.1-38.5-4.1-47.9-23.1c-4.5-9.2-5.3-20.4-5.3-30.9c2.7,1.8,5.9,4,9.3,6.4c13.9,9.7,31.2,21.8,43,21.8c11.4,0,26.8-10.8,39.1-19.3c4.6-3.3,9.1-6.3,12.4-8.2L182.8,144.4z M128.5,158.4L128.5,158.4C128.5,158.4,128.5,158.4,128.5,158.4C128.5,158.4,128.5,158.4,128.5,158.4z"/></g></g>
</svg>